<?xml version="1.0" standalone="no"?>
<!DOCTYPE svg PUBLIC "-//W3C//DTD SVG 20010904//EN"
 "http://www.w3.org/TR/2001/REC-SVG-20010904/DTD/svg10.dtd">
<svg version="1.0" xmlns="http://www.w3.org/2000/svg"
 width="1160.000000pt" height="1160.000000pt" viewBox="0 0 1160.000000 1160.000000"
 preserveAspectRatio="xMidYMid meet">
<metadata>
Created by potrace 1.14, written by Peter Selinger 2001-2017
</metadata>
<g transform="translate(0.000000,1160.000000) scale(0.100000,-0.100000)"
fill="#000000" stroke="none">
<path d="M5505 11594 c-16 -2 -84 -9 -150 -15 -66 -6 -131 -12 -145 -14 -14
-2 -47 -6 -75 -10 -27 -3 -63 -9 -80 -12 -16 -3 -39 -6 -50 -7 -11 -1 -26 -5
-32 -9 -7 -5 -13 -6 -13 -2 0 3 -10 1 -21 -6 -12 -6 -19 -7 -16 -2 7 12 -84
-10 -483 -112 -8 -2 -16 -4 -17 -5 -2 -2 -7 -4 -13 -5 -5 -1 -12 -4 -15 -5 -3
-1 -8 -3 -12 -4 -36 -7 -294 -100 -378 -135 -204 -86 -402 -182 -550 -266
-108 -61 -230 -138 -233 -146 -2 -5 -10 -9 -17 -9 -8 0 -20 -6 -27 -13 -7 -7
-40 -31 -73 -52 -54 -36 -203 -145 -231 -170 -6 -5 -21 -17 -34 -25 -12 -8
-34 -25 -48 -38 -15 -13 -36 -31 -47 -40 -11 -10 -51 -44 -90 -77 -128 -110
-372 -360 -494 -505 -46 -56 -111 -134 -119 -145 -37 -49 -160 -217 -169 -231
-7 -11 -25 -37 -39 -59 -48 -72 -139 -219 -154 -250 -8 -16 -18 -32 -22 -35
-12 -9 -194 -375 -231 -465 -21 -49 -42 -98 -47 -107 -6 -10 -10 -22 -10 -27
0 -5 -5 -22 -11 -38 -6 -15 -9 -28 -7 -29 2 0 -2 -7 -9 -15 -9 -11 -69 -175
-78 -214 -1 -5 -7 -21 -12 -35 -6 -14 -14 -44 -18 -67 -4 -24 -11 -43 -15 -43
-5 0 -8 -8 -8 -17 0 -10 -13 -70 -30 -133 -17 -63 -33 -128 -36 -145 -5 -29
-8 -47 -21 -110 -10 -45 -22 -122 -30 -175 -1 -14 -4 -25 -5 -25 -1 0 -4 -13
-5 -30 -2 -16 -6 -48 -8 -70 -3 -22 -8 -74 -12 -115 -4 -41 -10 -84 -13 -95
-4 -11 -8 -1473 -9 -3249 l-3 -3229 2242 2245 c1234 1235 2279 2274 2323 2309
44 35 88 71 99 79 10 8 29 25 42 38 13 13 24 20 24 16 0 -5 6 -1 13 7 6 9 49
46 94 83 l82 67 -24 52 c-12 29 -28 66 -35 83 -10 22 -19 30 -34 28 -12 -1
-21 -3 -21 -4 0 -2 -5 -3 -60 -15 -16 -3 -41 -8 -55 -11 -14 -3 -32 -7 -40 -9
-8 -2 -15 -4 -15 -5 0 -1 -9 -3 -20 -4 -11 -2 -92 -19 -180 -39 l-160 -36
-1454 2 -1454 2 1 480 c0 264 1 487 1 496 1 14 15 16 90 15 49 0 87 2 84 6 -2
5 6 4 19 0 13 -4 42 -6 66 -5 54 4 52 4 154 1 47 -2 84 0 81 4 -2 5 6 4 19 0
13 -4 42 -6 66 -5 54 4 52 4 154 1 47 -2 84 0 81 4 -2 5 6 4 19 0 13 -4 42 -6
66 -5 54 4 52 4 154 1 47 -2 84 0 81 4 -2 5 6 4 19 0 13 -4 42 -6 66 -5 54 4
52 4 154 1 47 -2 84 0 81 4 -2 5 6 4 19 0 13 -4 42 -6 66 -5 54 4 52 4 154 1
47 -2 84 0 81 4 -2 5 6 4 19 0 13 -4 42 -6 66 -5 54 4 52 4 154 1 47 -2 84 0
81 4 -2 5 6 4 19 0 13 -4 42 -6 66 -5 54 4 52 4 154 1 47 -2 84 0 81 4 -2 5 6
4 19 0 13 -4 42 -6 66 -5 53 4 44 4 187 0 66 -1 130 1 143 5 13 4 21 5 19 0
-3 -4 8 -7 23 -7 15 0 26 4 23 9 -4 5 -1 6 6 1 20 -11 130 -12 135 0 3 6 5 6
5 0 1 -12 262 -12 281 0 7 5 11 4 8 -1 -7 -11 142 -11 160 0 6 4 12 4 12 -1 0
-10 283 -8 300 2 7 5 11 4 7 -1 -3 -5 8 -9 23 -9 15 0 26 4 23 9 -4 5 -1 6 6
1 20 -11 130 -12 135 0 3 6 5 6 5 0 1 -12 262 -12 281 0 7 5 11 4 8 -1 -7 -11
142 -11 160 0 6 4 12 4 12 -1 0 -4 59 -7 132 -7 l132 2 272 -274 271 -273 2
-1198 c1 -659 1 -1207 1 -1218 0 -11 0 -234 -1 -496 -1 -262 2 -482 5 -488 4
-6 4 -11 -1 -11 -9 0 -9 -921 0 -944 4 -9 3 -16 -1 -16 -4 0 -6 -83 -5 -185 1
-102 -1 -185 -5 -186 -4 0 -231 0 -506 -1 -330 0 -500 3 -505 10 -8 13 -6
2926 2 2972 4 19 9 45 11 58 3 13 21 104 41 202 20 98 38 189 41 202 16 81 21
72 -71 117 l-85 42 -25 -28 c-13 -15 -25 -31 -25 -35 0 -4 -6 -13 -13 -20 -7
-7 -44 -56 -82 -108 -38 -52 -72 -97 -75 -100 -3 -3 -32 -41 -65 -85 -59 -80
-137 -160 -1240 -1270 -330 -332 -980 -987 -1445 -1455 -465 -468 -1067 -1074
-1338 -1346 -270 -273 -492 -498 -492 -500 0 -2 1971 -4 4380 -4 l4380 0 -3
3608 c-2 1984 -7 3623 -10 3642 -8 52 -19 140 -23 185 -5 53 -13 114 -20 145
-3 14 -7 39 -9 55 -2 17 -4 30 -5 30 -1 0 -3 9 -4 20 -5 38 -22 123 -25 128
-2 1 -4 15 -6 30 -5 37 -41 185 -66 271 -12 38 -22 77 -24 87 -2 10 -9 27 -15
38 -6 12 -8 21 -4 21 3 0 1 7 -6 15 -7 8 -10 15 -7 15 5 0 -56 181 -86 252 -8
20 -13 39 -9 42 3 3 0 6 -7 6 -7 0 -10 4 -6 9 3 5 1 12 -5 16 -5 3 -10 15 -10
26 0 10 -5 19 -12 19 -6 0 -9 3 -6 6 6 6 -8 42 -82 199 -23 50 -42 92 -42 95
0 3 -3 10 -8 15 -5 6 -32 55 -61 110 -29 55 -74 135 -101 178 -26 43 -48 83
-48 88 0 5 -4 9 -10 9 -5 0 -10 5 -10 10 0 10 -89 150 -101 160 -4 3 -15 19
-25 35 -24 40 -186 253 -213 282 -12 12 -21 24 -21 27 0 3 -10 16 -22 29 -13
13 -43 47 -68 77 -60 71 -349 362 -425 427 -176 151 -396 323 -414 323 -5 0
-11 4 -13 8 -4 12 -125 92 -137 92 -6 0 -11 4 -11 9 0 4 -20 19 -45 32 -25 13
-45 27 -45 31 0 5 -5 8 -10 8 -6 0 -35 15 -65 34 -29 19 -56 32 -59 29 -3 -4
-6 -1 -6 5 0 6 -16 16 -35 23 -19 7 -35 17 -35 21 0 4 -7 8 -15 8 -8 0 -15 5
-15 10 0 6 -7 10 -15 10 -15 0 -79 33 -104 54 -8 6 -16 10 -18 9 -1 -2 -51 20
-109 47 -58 28 -108 50 -110 50 -2 0 -26 9 -52 21 -113 50 -395 153 -452 164
-8 2 -16 4 -17 5 -2 2 -7 4 -13 5 -5 1 -13 4 -17 5 -5 1 -12 3 -18 4 -5 1 -17
5 -25 8 -16 7 -246 64 -295 73 -16 4 -43 9 -60 12 -46 8 -60 11 -60 13 0 3
-96 19 -155 25 -14 1 -25 3 -25 5 0 1 -13 3 -30 5 -16 1 -48 5 -70 8 -22 3
-74 8 -115 12 -41 4 -84 9 -95 12 -24 6 -646 11 -690 7z"/>
</g>
</svg>
