<svg width="119" height="145" viewBox="0 0 119 145" fill="none" xmlns="http://www.w3.org/2000/svg">
<mask id="path-1-inside-1_339:13" fill="white">
<path fill-rule="evenodd" clip-rule="evenodd" d="M59.5 0C26.6391 0 0 26.6391 0 59.5V135.49L55.8287 79.6L61.4382 75.024L60.5617 72.912L53.5498 74.496H17.0876V62H76.1633L83 68.864V128.176H70.2032V91.216L71.6056 84.176L69.502 83.12L65.1195 88.928L9.43188 145H119V59.5C119 26.6391 92.361 0 59.5 0Z"/>
</mask>
<path fill-rule="evenodd" clip-rule="evenodd" d="M59.5 0C26.6391 0 0 26.6391 0 59.5V135.49L55.8287 79.6L61.4382 75.024L60.5617 72.912L53.5498 74.496H17.0876V62H76.1633L83 68.864V128.176H70.2032V91.216L71.6056 84.176L69.502 83.12L65.1195 88.928L9.43188 145H119V59.5C119 26.6391 92.361 0 59.5 0Z" fill="#3772FF"/>
<path d="M0 135.49H-10V159.651L7.07498 142.558L0 135.49ZM55.8287 79.6L49.5076 71.8512L49.1133 72.1728L48.7537 72.5328L55.8287 79.6ZM61.4382 75.024L67.7593 82.7728L73.5281 78.067L70.6744 71.1909L61.4382 75.024ZM60.5617 72.912L69.7979 69.0789L66.5707 61.3026L58.3583 63.1578L60.5617 72.912ZM53.5498 74.496V84.496H54.6652L55.7533 84.2502L53.5498 74.496ZM17.0876 74.496H7.08765V84.496H17.0876V74.496ZM17.0876 62V52H7.08765V62H17.0876ZM76.1633 62L83.2485 54.9431L80.3172 52H76.1633V62ZM83 68.864H93V64.7336L90.0852 61.8071L83 68.864ZM83 128.176V138.176H93V128.176H83ZM70.2032 128.176H60.2032V138.176H70.2032V128.176ZM70.2032 91.216L60.3959 89.2624L60.2032 90.2297V91.216H70.2032ZM71.6056 84.176L81.4129 86.1297L82.9014 78.6572L76.092 75.2389L71.6056 84.176ZM69.502 83.12L73.9884 74.1829L66.5396 70.4436L61.5195 77.0967L69.502 83.12ZM65.1195 88.928L72.2149 95.9747L72.6932 95.4931L73.102 94.9513L65.1195 88.928ZM9.43188 145L2.33653 137.953L-14.5933 155H9.43188V145ZM119 145V155H129V145H119ZM10 59.5C10 32.1619 32.1619 10 59.5 10V-10C21.1162 -10 -10 21.1162 -10 59.5H10ZM10 135.49V59.5H-10V135.49H10ZM7.07498 142.558L62.9037 86.6672L48.7537 72.5328L-7.07498 128.423L7.07498 142.558ZM62.1498 87.3488L67.7593 82.7728L55.1172 67.2752L49.5076 71.8512L62.1498 87.3488ZM70.6744 71.1909L69.7979 69.0789L51.3256 76.7451L52.202 78.8571L70.6744 71.1909ZM58.3583 63.1578L51.3463 64.7418L55.7533 84.2502L62.7652 82.6662L58.3583 63.1578ZM53.5498 64.496H17.0876V84.496H53.5498V64.496ZM27.0876 74.496V62H7.08765V74.496H27.0876ZM17.0876 72H76.1633V52H17.0876V72ZM69.0782 69.0569L75.9148 75.9209L90.0852 61.8071L83.2485 54.9431L69.0782 69.0569ZM73 68.864V128.176H93V68.864H73ZM83 118.176H70.2032V138.176H83V118.176ZM80.2032 128.176V91.216H60.2032V128.176H80.2032ZM80.0105 93.1697L81.4129 86.1297L61.7983 82.2224L60.3959 89.2624L80.0105 93.1697ZM76.092 75.2389L73.9884 74.1829L65.0156 92.0571L67.1192 93.1131L76.092 75.2389ZM61.5195 77.0967L57.137 82.9048L73.102 94.9513L77.4845 89.1433L61.5195 77.0967ZM58.0242 81.8813L2.33653 137.953L16.5272 152.047L72.2149 95.9747L58.0242 81.8813ZM119 135H9.43188V155H119V135ZM109 59.5V145H129V59.5H109ZM59.5 10C86.8381 10 109 32.1619 109 59.5H129C129 21.1162 97.8838 -10 59.5 -10V10Z" fill="#3772FF" mask="url(#path-1-inside-1_339:13)"/>
</svg>
