<svg width="222" height="33" viewBox="0 0 222 33" fill="none" xmlns="http://www.w3.org/2000/svg">
<path d="M41 29.704V4.504H50.036L55.04 26.464H55.688V4.504H60.368V29.704H51.332L46.328 7.744H45.68V29.704H41Z" fill="#3772FF"/>
<path d="M73.7572 30.208C71.6932 30.208 69.9172 29.836 68.4292 29.092C66.9652 28.324 65.8372 27.244 65.0452 25.852C64.2772 24.436 63.8932 22.768 63.8932 20.848V4.504H68.6452V20.992C68.6452 22.528 69.0772 23.74 69.9412 24.628C70.8292 25.516 72.1012 25.96 73.7572 25.96C75.4132 25.96 76.6732 25.516 77.5372 24.628C78.4252 23.74 78.8692 22.528 78.8692 20.992V4.504H83.6212V20.848C83.6212 22.768 83.2252 24.436 82.4332 25.852C81.6652 27.244 80.5372 28.324 79.0492 29.092C77.5852 29.836 75.8212 30.208 73.7572 30.208Z" fill="#3772FF"/>
<path d="M95.8927 30.208C93.9487 30.208 92.2327 29.86 90.7447 29.164C89.2567 28.468 88.0927 27.472 87.2527 26.176C86.4127 24.88 85.9927 23.32 85.9927 21.496V20.488H90.6727V21.496C90.6727 23.008 91.1407 24.148 92.0767 24.916C93.0127 25.66 94.2847 26.032 95.8927 26.032C97.5247 26.032 98.7367 25.708 99.5287 25.06C100.345 24.412 100.753 23.584 100.753 22.576C100.753 21.88 100.549 21.316 100.141 20.884C99.7567 20.452 99.1807 20.104 98.4127 19.84C97.6687 19.552 96.7567 19.288 95.6767 19.048L94.8487 18.868C93.1207 18.484 91.6327 18.004 90.3847 17.428C89.1607 16.828 88.2127 16.048 87.5407 15.088C86.8927 14.128 86.5687 12.88 86.5687 11.344C86.5687 9.808 86.9287 8.5 87.6487 7.42C88.3927 6.316 89.4247 5.476 90.7447 4.9C92.0887 4.3 93.6607 4 95.4607 4C97.2607 4 98.8567 4.312 100.249 4.936C101.665 5.536 102.769 6.448 103.561 7.672C104.377 8.872 104.785 10.384 104.785 12.208V13.288H100.105V12.208C100.105 11.248 99.9127 10.48 99.5287 9.904C99.1687 9.304 98.6407 8.872 97.9447 8.608C97.2487 8.32 96.4207 8.176 95.4607 8.176C94.0207 8.176 92.9527 8.452 92.2567 9.004C91.5847 9.532 91.2487 10.264 91.2487 11.2C91.2487 11.824 91.4047 12.352 91.7167 12.784C92.0527 13.216 92.5447 13.576 93.1927 13.864C93.8407 14.152 94.6687 14.404 95.6767 14.62L96.5047 14.8C98.3047 15.184 99.8647 15.676 101.185 16.276C102.529 16.876 103.573 17.668 104.317 18.652C105.061 19.636 105.433 20.896 105.433 22.432C105.433 23.968 105.037 25.324 104.245 26.5C103.477 27.652 102.373 28.564 100.933 29.236C99.5167 29.884 97.8367 30.208 95.8927 30.208Z" fill="#3772FF"/>
<path d="M106.529 29.704L114.773 4.504H118.877L127.121 29.704H124.709L122.549 23.008H111.101L108.941 29.704H106.529ZM111.749 20.92H121.901L117.041 5.872H116.609L111.749 20.92Z" fill="#3772FF"/>
<path d="M139.574 30.208C137.654 30.208 136.154 29.836 135.074 29.092C134.018 28.324 133.238 27.46 132.734 26.5H132.302V29.704H130.214V4.504H132.374V15.268H132.806C133.118 14.668 133.55 14.104 134.102 13.576C134.678 13.024 135.41 12.58 136.298 12.244C137.21 11.884 138.302 11.704 139.574 11.704C141.158 11.704 142.586 12.076 143.858 12.82C145.13 13.54 146.138 14.584 146.882 15.952C147.626 17.296 147.998 18.892 147.998 20.74V21.172C147.998 23.02 147.614 24.628 146.846 25.996C146.102 27.34 145.094 28.384 143.822 29.128C142.55 29.848 141.134 30.208 139.574 30.208ZM139.07 28.264C141.062 28.264 142.67 27.628 143.894 26.356C145.142 25.084 145.766 23.332 145.766 21.1V20.812C145.766 18.58 145.142 16.828 143.894 15.556C142.67 14.284 141.062 13.648 139.07 13.648C137.102 13.648 135.494 14.284 134.246 15.556C132.998 16.828 132.374 18.58 132.374 20.812V21.1C132.374 23.332 132.998 25.084 134.246 26.356C135.494 27.628 137.102 28.264 139.07 28.264Z" fill="#3772FF"/>
<path d="M152.408 29.704V12.208H154.496V14.404H154.928C155.264 13.612 155.756 13.036 156.404 12.676C157.076 12.316 158 12.136 159.176 12.136H161.228V14.152H158.924C157.604 14.152 156.548 14.524 155.756 15.268C154.964 16.012 154.568 17.176 154.568 18.76V29.704H152.408Z" fill="#3772FF"/>
<path d="M171.976 30.208C170.2 30.208 168.64 29.836 167.296 29.092C165.976 28.324 164.944 27.268 164.2 25.924C163.48 24.556 163.12 22.972 163.12 21.172V20.74C163.12 18.94 163.48 17.368 164.2 16.024C164.944 14.656 165.976 13.6 167.296 12.856C168.64 12.088 170.2 11.704 171.976 11.704C173.752 11.704 175.3 12.088 176.62 12.856C177.964 13.6 178.996 14.656 179.716 16.024C180.46 17.368 180.832 18.94 180.832 20.74V21.172C180.832 22.972 180.46 24.556 179.716 25.924C178.996 27.268 177.964 28.324 176.62 29.092C175.3 29.836 173.752 30.208 171.976 30.208ZM171.976 28.264C174.04 28.264 175.672 27.616 176.872 26.32C178.072 25 178.672 23.26 178.672 21.1V20.812C178.672 18.652 178.072 16.924 176.872 15.628C175.672 14.308 174.04 13.648 171.976 13.648C169.936 13.648 168.304 14.308 167.08 15.628C165.88 16.924 165.28 18.652 165.28 20.812V21.1C165.28 23.26 165.88 25 167.08 26.32C168.304 27.616 169.936 28.264 171.976 28.264Z" fill="#3772FF"/>
<path d="M190.592 30.208C189.368 30.208 188.252 30.004 187.244 29.596C186.26 29.164 185.48 28.54 184.904 27.724C184.328 26.908 184.04 25.924 184.04 24.772C184.04 23.596 184.328 22.624 184.904 21.856C185.48 21.088 186.26 20.512 187.244 20.128C188.228 19.744 189.32 19.552 190.52 19.552H196.928V18.148C196.928 16.732 196.52 15.628 195.704 14.836C194.888 14.044 193.7 13.648 192.14 13.648C190.604 13.648 189.38 14.032 188.468 14.8C187.58 15.544 186.98 16.552 186.668 17.824L184.58 17.212C184.868 16.18 185.324 15.256 185.948 14.44C186.572 13.6 187.4 12.94 188.432 12.46C189.464 11.956 190.7 11.704 192.14 11.704C194.348 11.704 196.052 12.28 197.252 13.432C198.476 14.584 199.088 16.192 199.088 18.256V26.752C199.088 27.472 199.424 27.832 200.096 27.832H201.788V29.704H199.484C198.74 29.704 198.152 29.488 197.72 29.056C197.288 28.6 197.072 27.988 197.072 27.22V26.968H196.712C196.4 27.496 195.992 28.012 195.488 28.516C195.008 29.02 194.372 29.428 193.58 29.74C192.788 30.052 191.792 30.208 190.592 30.208ZM190.736 28.264C192.584 28.264 194.072 27.712 195.2 26.608C196.352 25.48 196.928 23.896 196.928 21.856V21.424H190.556C189.308 21.424 188.264 21.7 187.424 22.252C186.608 22.78 186.2 23.608 186.2 24.736C186.2 25.864 186.62 26.74 187.46 27.364C188.324 27.964 189.416 28.264 190.736 28.264Z" fill="#3772FF"/>
<path d="M211.853 30.208C210.293 30.208 208.877 29.848 207.605 29.128C206.333 28.384 205.313 27.34 204.545 25.996C203.801 24.628 203.429 23.02 203.429 21.172V20.74C203.429 18.892 203.801 17.296 204.545 15.952C205.289 14.584 206.297 13.54 207.569 12.82C208.865 12.076 210.293 11.704 211.853 11.704C213.149 11.704 214.241 11.884 215.129 12.244C216.017 12.58 216.737 13.024 217.289 13.576C217.865 14.104 218.309 14.668 218.621 15.268H219.053V4.504H221.213V29.704H219.125V26.5H218.693C218.189 27.46 217.397 28.324 216.317 29.092C215.261 29.836 213.773 30.208 211.853 30.208ZM212.357 28.264C214.349 28.264 215.957 27.628 217.181 26.356C218.429 25.084 219.053 23.332 219.053 21.1V20.812C219.053 18.58 218.429 16.828 217.181 15.556C215.957 14.284 214.349 13.648 212.357 13.648C210.389 13.648 208.781 14.284 207.533 15.556C206.285 16.828 205.661 18.58 205.661 20.812V21.1C205.661 23.332 206.285 25.084 207.533 26.356C208.781 27.628 210.389 28.264 212.357 28.264Z" fill="#3772FF"/>
<mask id="path-2-inside-1_341:54" fill="white">
<path fill-rule="evenodd" clip-rule="evenodd" d="M13.5414 0C6.06268 0 0 6.06268 0 13.5414V30.8357L12.7058 18.1159L13.9825 17.0744L13.783 16.5938L12.1872 16.9543H3.8889V14.1103H17.3337L18.8896 15.6725V29.1711H15.9773V20.7595L16.2964 19.1573L15.8177 18.917L14.8203 20.2388L2.14655 33H27.0828V13.5414C27.0828 6.06268 21.0201 0 13.5414 0Z"/>
</mask>
<path fill-rule="evenodd" clip-rule="evenodd" d="M13.5414 0C6.06268 0 0 6.06268 0 13.5414V30.8357L12.7058 18.1159L13.9825 17.0744L13.783 16.5938L12.1872 16.9543H3.8889V14.1103H17.3337L18.8896 15.6725V29.1711H15.9773V20.7595L16.2964 19.1573L15.8177 18.917L14.8203 20.2388L2.14655 33H27.0828V13.5414C27.0828 6.06268 21.0201 0 13.5414 0Z" fill="#3772FF"/>
<path d="M0 30.8357H-10V54.9968L7.07498 37.9029L0 30.8357ZM12.7058 18.1159L6.38474 10.3671L5.99045 10.6887L5.63084 11.0487L12.7058 18.1159ZM13.9825 17.0744L20.3036 24.8232L26.0723 20.1174L23.2187 13.2413L13.9825 17.0744ZM13.783 16.5938L23.0192 12.7607L19.792 4.98438L11.5795 6.83955L13.783 16.5938ZM12.1872 16.9543V26.9543H13.3026L14.3906 26.7085L12.1872 16.9543ZM3.8889 16.9543H-6.1111V26.9543H3.8889V16.9543ZM3.8889 14.1103V4.11035H-6.1111V14.1103H3.8889ZM17.3337 14.1103L24.4189 7.05341L21.4875 4.11035H17.3337V14.1103ZM18.8896 15.6725H28.8896V11.5421L25.9748 8.61556L18.8896 15.6725ZM18.8896 29.1711V39.1711H28.8896V29.1711H18.8896ZM15.9773 29.1711H5.97726V39.1711H15.9773V29.1711ZM15.9773 20.7595L6.16996 18.8059L5.97726 19.7732V20.7595H15.9773ZM16.2964 19.1573L26.1037 21.111L27.5923 13.6385L20.7829 10.2202L16.2964 19.1573ZM15.8177 18.917L20.3041 9.97987L12.8554 6.24057L7.83517 12.8937L15.8177 18.917ZM14.8203 20.2388L21.9156 27.2855L22.3939 26.8039L22.8028 26.262L14.8203 20.2388ZM2.14655 33L-4.94879 25.9533L-21.8787 43H2.14655V33ZM27.0828 33V43H37.0828V33H27.0828ZM10 13.5414C10 11.5855 11.5855 10 13.5414 10V-10C0.539837 -10 -10 0.539834 -10 13.5414H10ZM10 30.8357V13.5414H-10V30.8357H10ZM7.07498 37.9029L19.7808 25.183L5.63084 11.0487L-7.07498 23.7686L7.07498 37.9029ZM19.0269 25.8647L20.3036 24.8232L7.66139 9.32563L6.38474 10.3671L19.0269 25.8647ZM23.2187 13.2413L23.0192 12.7607L4.54681 20.4269L4.74629 20.9075L23.2187 13.2413ZM11.5795 6.83955L9.98371 7.20005L14.3906 26.7085L15.9865 26.348L11.5795 6.83955ZM12.1872 6.95427H3.8889V26.9543H12.1872V6.95427ZM13.8889 16.9543V14.1103H-6.1111V16.9543H13.8889ZM3.8889 24.1103H17.3337V4.11035H3.8889V24.1103ZM10.2485 21.1673L11.8045 22.7294L25.9748 8.61556L24.4189 7.05341L10.2485 21.1673ZM8.88964 15.6725V29.1711H28.8896V15.6725H8.88964ZM18.8896 19.1711H15.9773V39.1711H18.8896V19.1711ZM25.9773 29.1711V20.7595H5.97726V29.1711H25.9773ZM25.7846 22.7132L26.1037 21.111L6.48912 17.2036L6.16996 18.8059L25.7846 22.7132ZM20.7829 10.2202L20.3041 9.97987L11.3312 27.8541L11.81 28.0944L20.7829 10.2202ZM7.83517 12.8937L6.83778 14.2155L22.8028 26.262L23.8002 24.9402L7.83517 12.8937ZM7.72494 13.1921L-4.94879 25.9533L9.24189 40.0467L21.9156 27.2855L7.72494 13.1921ZM27.0828 23H2.14655V43H27.0828V23ZM17.0828 13.5414V33H37.0828V13.5414H17.0828ZM13.5414 10C15.4972 10 17.0828 11.5855 17.0828 13.5414H37.0828C37.0828 0.539836 26.5429 -10 13.5414 -10V10Z" fill="#3772FF" mask="url(#path-2-inside-1_341:54)"/>
</svg>
