<svg width="252" height="252" viewBox="0 0 252 252" fill="none" xmlns="http://www.w3.org/2000/svg">
<path d="M126 0C60.7615 0 7.875 52.8865 7.875 118.125C7.875 183.363 60.7615 236.25 126 236.25C191.238 236.25 244.125 183.363 244.125 118.125C244.125 52.8865 191.238 0 126 0Z" fill="#88C5CC"/>
<path d="M131.906 7.875H127.969V59.0625H131.906V7.875Z" fill="#263740"/>
<path d="M27.5625 252V236.25C27.5625 234.084 29.6573 232.312 32.2147 232.312H227.656C230.214 232.312 232.309 234.084 232.309 236.25V252H27.5625Z" fill="#CCCCCC"/>
<path d="M228.375 232.312H220.5C222.666 232.312 224.438 234.084 224.438 236.25V252H232.312V236.25C232.312 234.084 230.541 232.312 228.375 232.312Z" fill="#B3B3B3"/>
<path d="M232.312 250.031H27.5625V252H232.312V250.031Z" fill="#B3B3B3"/>
<path d="M192.938 118.125H66.9375V232.312H192.938V118.125Z" fill="#406A80"/>
<path d="M80.7188 126H57.0938V224.438H80.7188V126Z" fill="#E6E6E6"/>
<path d="M78.75 126H74.8125V224.438H78.75V126Z" fill="#CCCCCC"/>
<path d="M63 126H59.0625V224.438H63V126Z" fill="#CCCCCC"/>
<path d="M70.875 126H66.9375V224.438H70.875V126Z" fill="#CCCCCC"/>
<path d="M202.781 126H179.156V224.438H202.781V126Z" fill="#E6E6E6"/>
<path d="M161.438 126H137.812V224.438H161.438V126Z" fill="#E6E6E6"/>
<path d="M122.062 126H98.4375V224.438H122.062V126Z" fill="#E6E6E6"/>
<path d="M55.125 232.312V226.406C55.125 225.323 56.0109 224.438 57.0938 224.438H80.7188C81.8016 224.438 82.6875 225.323 82.6875 226.406V232.312H55.125Z" fill="#CCCCCC"/>
<path d="M82.6875 230.344H55.125V232.312H82.6875V230.344Z" fill="#B3B3B3"/>
<path d="M96.4688 232.312V226.406C96.4688 225.323 97.3547 224.438 98.4375 224.438H122.062C123.145 224.438 124.031 225.323 124.031 226.406V232.312H96.4688Z" fill="#CCCCCC"/>
<path d="M124.031 230.344H96.4688V232.312H124.031V230.344Z" fill="#B3B3B3"/>
<path d="M135.844 232.312V226.406C135.844 225.323 136.73 224.438 137.812 224.438H161.438C162.52 224.438 163.406 225.323 163.406 226.406V232.312H135.844Z" fill="#CCCCCC"/>
<path d="M163.406 230.344H135.844V232.312H163.406V230.344Z" fill="#B3B3B3"/>
<path d="M177.188 232.312V226.406C177.188 225.323 178.073 224.438 179.156 224.438H202.781C203.864 224.438 204.75 225.323 204.75 226.406V232.312H177.188Z" fill="#CCCCCC"/>
<path d="M204.75 230.344H177.188V232.312H204.75V230.344Z" fill="#B3B3B3"/>
<path d="M55.125 118.125V124.031C55.125 125.114 56.0109 126 57.0938 126H80.7188C81.8016 126 82.6875 125.114 82.6875 124.031V118.125H55.125Z" fill="#CCCCCC"/>
<path d="M82.6875 118.125H55.125V120.094H82.6875V118.125Z" fill="#B3B3B3"/>
<path d="M96.4688 118.125V124.031C96.4688 125.114 97.3547 126 98.4375 126H122.062C123.145 126 124.031 125.114 124.031 124.031V118.125H96.4688Z" fill="#CCCCCC"/>
<path d="M124.031 118.125H96.4688V120.094H124.031V118.125Z" fill="#B3B3B3"/>
<path d="M135.844 118.125V124.031C135.844 125.114 136.73 126 137.812 126H161.438C162.52 126 163.406 125.114 163.406 124.031V118.125H135.844Z" fill="#CCCCCC"/>
<path d="M163.406 118.125H135.844V120.094H163.406V118.125Z" fill="#B3B3B3"/>
<path d="M177.188 118.125V124.031C177.188 125.114 178.073 126 179.156 126H202.781C203.864 126 204.75 125.114 204.75 124.031V118.125H177.188Z" fill="#CCCCCC"/>
<path d="M204.75 118.125H177.188V120.094H204.75V118.125Z" fill="#B3B3B3"/>
<path d="M129.938 51.1875L39.375 110.25H129.938H220.5L129.938 51.1875Z" fill="#B3B3B3"/>
<path d="M65.8665 102.375L129.938 60.5883L194.008 102.375H65.8665Z" fill="#F5F5F5"/>
<path d="M131.906 110.25C130.823 110.25 129.052 110.25 127.969 110.25H33.4688C32.3859 110.25 31.5 111.136 31.5 112.219V116.156C31.5 117.239 32.3859 118.125 33.4688 118.125H127.969C129.052 118.125 130.823 118.125 131.906 118.125H226.406C227.489 118.125 228.375 117.239 228.375 116.156V112.219C228.375 111.136 227.489 110.25 226.406 110.25H131.906Z" fill="#F5F5F5"/>
<path d="M129.938 11.8125C132.112 11.8125 133.875 10.0496 133.875 7.875C133.875 5.70038 132.112 3.9375 129.938 3.9375C127.763 3.9375 126 5.70038 126 7.875C126 10.0496 127.763 11.8125 129.938 11.8125Z" fill="#263740"/>
<path d="M169.312 39.375H145.688V19.6875H169.312L161.438 29.5312L169.312 39.375Z" fill="#F2CF61"/>
<path d="M153.562 11.8125H129.938V31.5H153.562V11.8125Z" fill="#F2CF61"/>
<path d="M153.562 31.5H145.688V39.375L153.562 31.5Z" fill="#E6C45C"/>
<path d="M120.094 126H116.156V224.438H120.094V126Z" fill="#CCCCCC"/>
<path d="M104.344 126H100.406V224.438H104.344V126Z" fill="#CCCCCC"/>
<path d="M112.219 126H108.281V224.438H112.219V126Z" fill="#CCCCCC"/>
<path d="M159.469 126H155.531V224.438H159.469V126Z" fill="#CCCCCC"/>
<path d="M143.719 126H139.781V224.438H143.719V126Z" fill="#CCCCCC"/>
<path d="M151.594 126H147.656V224.438H151.594V126Z" fill="#CCCCCC"/>
<path d="M200.812 126H196.875V224.438H200.812V126Z" fill="#CCCCCC"/>
<path d="M185.062 126H181.125V224.438H185.062V126Z" fill="#CCCCCC"/>
<path d="M192.938 126H189V224.438H192.938V126Z" fill="#CCCCCC"/>
</svg>
